<svg width="407" height="435" viewBox="0 0 407 435" fill="none" xmlns="http://www.w3.org/2000/svg">
<path d="M125.955 76.4819C125.955 129.408 64.9549 305.982 64.9549 305.982C64.9549 305.982 0.454772 129.698 0.454772 96.4819C-4.27049 55.5845 28.2955 1.67191 76.3292 4.07777C109.489 4.07777 134.361 25.9616 125.955 76.4819Z" fill="#769676"/>
<path d="M62.4549 287.982C58.5732 288.948 58.5731 288.947 58.5727 288.946L58.5712 288.94L58.5654 288.916L58.5424 288.824L58.452 288.46C58.3723 288.138 58.2542 287.661 58.1001 287.038C57.792 285.792 57.3402 283.96 56.7654 281.618C55.6158 276.933 53.9739 270.205 52.0036 262.027C48.0635 245.674 42.809 223.519 37.5537 200.322C32.2998 177.13 27.0388 152.869 23.0892 132.312C19.2043 112.091 16.5027 95.0418 16.4555 86.2145C11.5935 42.9285 46.908 2.22292 97.2229 4.68724C115.163 4.71913 130.224 13.2696 139.541 28.5577C148.76 43.6831 152.181 65.0657 147.954 90.8162C147.87 104.786 142.569 124.18 134.979 145.037C127.277 166.202 117.03 189.364 106.816 210.8C96.596 232.247 86.3803 252.027 78.7216 266.442C74.8915 273.651 71.6989 279.522 69.4626 283.592C68.3444 285.628 67.4652 287.213 66.8647 288.292C66.5645 288.831 66.334 289.243 66.1781 289.521L66.0008 289.837L65.9554 289.918L65.9437 289.938L65.9406 289.944C65.9398 289.945 65.9393 289.946 62.4549 287.982ZM62.4549 287.982L58.5732 288.948L61.0014 298.706L65.9393 289.946L62.4549 287.982Z" stroke="#0C3B2E" stroke-width="8"/>
<path d="M333.587 185.936C284.587 233.436 94.9918 313.136 94.9918 313.136C94.9918 313.136 143.087 150.436 223.087 81.9363C254.98 45.7722 316.087 38.4364 353.587 90.4364C368.731 111.436 379.087 146.436 333.587 185.936Z" fill="#769676"/>
<path d="M106.587 306.436C102.854 304.998 102.855 304.997 102.855 304.995L102.858 304.988L102.867 304.964L102.904 304.87C102.936 304.788 102.983 304.667 103.045 304.509C103.169 304.191 103.353 303.722 103.596 303.111C104.083 301.887 104.804 300.092 105.749 297.793C107.64 293.194 110.426 286.578 114.016 278.486C121.196 262.306 131.603 240.204 144.512 216.522C170.207 169.384 206.247 115.154 246.957 89.5504L247.069 89.4802L247.185 89.4175C266.043 79.2239 287.049 72.205 308.137 73.5596C329.375 74.9239 350.226 84.755 368.627 107.335C382.206 122.451 388.482 140.024 384.186 158.32C379.94 176.406 365.575 194.252 340.015 210.631C327.988 221.365 307.438 232.863 283.764 244.022C259.813 255.312 232.267 266.433 206.221 276.234C180.165 286.039 155.56 294.543 137.471 300.594C128.426 303.62 121.007 306.034 115.847 307.692C113.267 308.521 111.251 309.161 109.88 309.595C109.194 309.811 108.669 309.976 108.315 310.087L107.913 310.213L107.81 310.245L107.784 310.253L107.777 310.255C107.776 310.256 107.775 310.256 106.587 306.436ZM106.587 306.436L102.854 304.998L99.8822 312.711L107.775 310.256L106.587 306.436Z" stroke="#0C3B2E" stroke-width="8"/>
<path d="M293.942 412.887C225.706 411.826 95.8825 341.73 95.8825 341.73C95.8825 341.73 219.937 283.255 324.942 291.387C373.066 288.367 393.705 326.343 381.442 364.887C374.442 386.887 354.046 417.129 293.942 412.887Z" fill="#769676"/>
<path d="M108.794 339.748L107.688 335.904L100.52 337.968L106.205 342.796L108.794 339.748ZM108.794 339.748C106.205 342.796 106.206 342.797 106.207 342.799L106.212 342.803L106.229 342.817L106.289 342.867L106.354 342.922C106.399 342.96 106.453 343.005 106.516 343.058C106.715 343.225 107.009 343.469 107.394 343.786C108.163 344.42 109.298 345.345 110.772 346.519C113.72 348.866 118.028 352.214 123.494 356.234C134.424 364.272 150 375.014 168.607 385.837C205.711 407.421 255.328 429.609 304.338 430.885C322.453 431.357 340.792 425.049 354.905 415.749C368.842 406.566 379.583 393.813 380.921 380.795C383.787 352.904 381.831 337.515 372.283 328.042C367.599 323.395 361.429 320.535 354.278 318.103C349.953 316.633 344.956 315.226 339.475 313.683C336.022 312.71 332.376 311.684 328.585 310.553L328.391 310.495L328.193 310.458C288.144 302.805 232.831 309.288 187.96 317.508C165.436 321.634 145.382 326.229 130.96 329.793C123.747 331.575 117.938 333.1 113.929 334.181C111.924 334.721 110.368 335.151 109.312 335.446C108.784 335.593 108.38 335.707 108.107 335.784C107.971 335.823 107.867 335.853 107.797 335.873L107.717 335.896L107.696 335.902L107.69 335.903C107.689 335.904 107.688 335.904 108.794 339.748Z" stroke="#0C3B2E" stroke-width="8"/>
</svg>
